<?xml version="1.0" encoding="UTF-8"?>
<!DOCTYPE svg PUBLIC "-//W3C//DTD SVG 1.1//EN" "http://www.w3.org/Graphics/SVG/1.1/DTD/svg11.dtd">
<svg xmlns="http://www.w3.org/2000/svg" version="1.1" width="176px" height="158px" style="shape-rendering:geometricPrecision; text-rendering:geometricPrecision; image-rendering:optimizeQuality; fill-rule:evenodd; clip-rule:evenodd" xmlns:xlink="http://www.w3.org/1999/xlink">
<g><path style="opacity:1" fill="#fefefe" d="M -0.5,-0.5 C 58.1667,-0.5 116.833,-0.5 175.5,-0.5C 175.5,52.1667 175.5,104.833 175.5,157.5C 116.833,157.5 58.1667,157.5 -0.5,157.5C -0.5,104.833 -0.5,52.1667 -0.5,-0.5 Z"/></g>
<g><path style="opacity:1" fill="#edd1b1" d="M 105.5,118.5 C 105.5,121.5 105.5,124.5 105.5,127.5C 99.8333,127.5 94.1667,127.5 88.5,127.5C 59.689,124.854 50.5223,110.187 61,83.5C 64.5,78.6667 68.6667,74.5 73.5,71C 62.2462,64.9692 59.4129,56.1359 65,44.5C 72.3852,37.5354 81.2185,34.2021 91.5,34.5C 91.5,37.8333 91.5,41.1667 91.5,44.5C 83.8329,43.7905 77.3329,46.1239 72,51.5C 70.7086,56.5621 72.5419,60.0621 77.5,62C 85.4321,63.1937 93.0987,62.3604 100.5,59.5C 101.653,62.4461 102.653,65.4461 103.5,68.5C 90.2804,70.8381 79.1138,76.8381 70,86.5C 61.342,105.535 67.5086,116.035 88.5,118C 94.1569,118.499 99.8236,118.666 105.5,118.5 Z"/></g>
<g><path style="opacity:1" fill="#f3e0cb" d="M 105.5,118.5 C 106.479,121.625 106.813,124.958 106.5,128.5C 100.31,128.823 94.31,128.49 88.5,127.5C 94.1667,127.5 99.8333,127.5 105.5,127.5C 105.5,124.5 105.5,121.5 105.5,118.5 Z"/></g>
</svg>
