<?xml version="1.0" encoding="UTF-8"?>
<svg version="1.1" xmlns="http://www.w3.org/2000/svg" width="144" height="131">
<path d="M0 0 C47.52 0 95.04 0 144 0 C144 43.23 144 86.46 144 131 C96.48 131 48.96 131 0 131 C0 87.77 0 44.54 0 0 Z " fill="#FEFEFE" transform="translate(0,0)"/>
<path d="M0 0 C3.3 0 6.6 0 10 0 C9.6937875 7.96152504 8.81984327 14.45878413 4 21 C-8.92358651 32.87166668 -27.47557706 31.6392084 -43.80566406 31.18798828 C-52.24201465 30.69150479 -59.61331499 28.73588291 -66 23 C-68.98088982 18.47727062 -69.7720008 14.32482606 -69 9 C-68.17353198 6.21660771 -67.14750002 3.67750005 -66 1 C-61.545 1.99 -61.545 1.99 -57 3 C-57 7.62 -57 12.24 -57 17 C-51.96498904 19.46021067 -47.86824331 20.45806912 -42.23046875 20.43359375 C-41.14890251 20.44145653 -41.14890251 20.44145653 -40.04548645 20.44947815 C-38.52862832 20.45586309 -37.01172045 20.45460738 -35.49487305 20.44604492 C-33.20334255 20.43755867 -30.91433044 20.4663021 -28.62304688 20.49804688 C-20.71945671 20.53725599 -12.82317054 20.54670869 -6 16 C-1.85024099 11.09344603 -0.74389626 6.32311823 0 0 Z " fill="#EDD2B2" transform="translate(99,43)"/>
<path d="M0 0 C3.68069887 1.53643852 5.98775204 3.78150945 8.75 6.625 C9.54921875 7.44226563 10.3484375 8.25953125 11.171875 9.1015625 C11.77515625 9.72804688 12.3784375 10.35453125 13 11 C9.32167983 15.52615993 5.58913637 19.39424999 1 23 C-2.63 19.37 -6.26 15.74 -10 12 C-8.85274723 8.55824169 -7.74715348 7.70880725 -5 5.4375 C-2.05040821 3.07789673 -2.05040821 3.07789673 0 0 Z " fill="#EDD2B2" transform="translate(68,81)"/>
</svg>
