<?xml version="1.0" encoding="UTF-8"?>
<svg version="1.1" xmlns="http://www.w3.org/2000/svg" width="176" height="158">
<path d="M0 0 C58.08 0 116.16 0 176 0 C176 52.14 176 104.28 176 158 C117.92 158 59.84 158 0 158 C0 105.86 0 53.72 0 0 Z " fill="#FEFEFE" transform="translate(0,0)"/>
<path d="M0 0 C7.25893967 6.34764421 11.22185174 18.58636932 12.21484375 28.046875 C12.43906432 32.81828869 11.61633327 36.0303909 9 40 C2.85177789 45.98642679 -3.93943242 45.20803762 -12.10546875 45.16796875 C-17.19923675 44.94827765 -22.04158795 44.15455748 -27 43 C-26.34 40.03 -25.68 37.06 -25 34 C-23.8718689 34.00785522 -23.8718689 34.00785522 -22.72094727 34.01586914 C-19.33480658 34.03657227 -15.94867916 34.04963877 -12.5625 34.0625 C-11.37849609 34.07087891 -10.19449219 34.07925781 -8.97460938 34.08789062 C-7.84990234 34.09111328 -6.72519531 34.09433594 -5.56640625 34.09765625 C-4.00321655 34.10551147 -4.00321655 34.10551147 -2.40844727 34.11352539 C-0.04871253 34.27305556 -0.04871253 34.27305556 1 33 C1.40582673 26.99114619 0.55838745 22.83031513 -1.875 17.375 C-3.76415059 12.96396895 -5.5486495 8.579504 -7 4 C-4.69 2.68 -2.38 1.36 0 0 Z " fill="#EDD2B2" transform="translate(92,54)"/>
</svg>
