<?xml version="1.0" encoding="UTF-8"?>
<!DOCTYPE svg PUBLIC "-//W3C//DTD SVG 1.1//EN" "http://www.w3.org/Graphics/SVG/1.1/DTD/svg11.dtd">
<svg xmlns="http://www.w3.org/2000/svg" version="1.1" width="176px" height="158px" style="shape-rendering:geometricPrecision; text-rendering:geometricPrecision; image-rendering:optimizeQuality; fill-rule:evenodd; clip-rule:evenodd" xmlns:xlink="http://www.w3.org/1999/xlink">
<g><path style="opacity:1" fill="#fefefe" d="M -0.5,-0.5 C 58.1667,-0.5 116.833,-0.5 175.5,-0.5C 175.5,52.1667 175.5,104.833 175.5,157.5C 116.833,157.5 58.1667,157.5 -0.5,157.5C -0.5,104.833 -0.5,52.1667 -0.5,-0.5 Z"/></g>
<g><path style="opacity:1" fill="#edd1b1" d="M 107.5,25.5 C 112.085,28.4136 116.085,32.0802 119.5,36.5C 116.167,40.5 112.5,44.1667 108.5,47.5C 104.5,44.1667 100.833,40.5 97.5,36.5C 100.855,32.8133 104.189,29.1466 107.5,25.5 Z"/></g>
<g><path style="opacity:1" fill="#edd1b1" d="M 116.5,55.5 C 130.423,54.4286 138.423,60.7619 140.5,74.5C 138.686,87.8124 131.02,95.3124 117.5,97C 106.878,98.3116 96.2108,98.8116 85.5,98.5C 80.7404,119.515 67.7404,127.348 46.5,122C 36.2213,116.591 31.5546,107.925 32.5,96C 33.0054,90.8033 33.672,85.6366 34.5,80.5C 38.0128,80.3075 41.3462,80.9741 44.5,82.5C 42.5252,90.0406 42.0252,97.7072 43,105.5C 44.1049,108.937 46.2716,111.437 49.5,113C 62.2544,116.04 71.0877,111.54 76,99.5C 77.2466,92.221 77.7466,84.8876 77.5,77.5C 80.5,77.5 83.5,77.5 86.5,77.5C 86.3505,78.552 86.5172,79.552 87,80.5C 94.9441,69.7055 104.777,61.3721 116.5,55.5 Z"/></g>
<g><path style="opacity:1" fill="#fefdfd" d="M 117.5,65.5 C 128.104,64.2745 132.27,68.9412 130,79.5C 126.195,84.567 121.028,87.4003 114.5,88C 107.808,88.8309 101.142,88.6642 94.5,87.5C 100.264,78.0672 107.93,70.7339 117.5,65.5 Z"/></g>
</svg>
