<?xml version="1.0" encoding="UTF-8"?>
<svg version="1.1" xmlns="http://www.w3.org/2000/svg" width="176" height="158">
<path d="M0 0 C58.08 0 116.16 0 176 0 C176 52.14 176 104.28 176 158 C117.92 158 59.84 158 0 158 C0 105.86 0 53.72 0 0 Z " fill="#FEFEFE" transform="translate(0,0)"/>
<path d="M0 0 C1.29842341 2.6844149 2.58882859 5.37222104 3.875 8.0625 C4.23980469 8.81466797 4.60460937 9.56683594 4.98046875 10.34179688 C8.83514938 18.4366262 11.11778379 25.96230911 10 35 C8.01926639 38.96146722 5.85727528 41.77914453 2 44 C-7.14499971 46.38065522 -17.73524975 45.43763366 -27 44 C-28 43 -28 43 -28.1328125 41.1875 C-28.13023438 40.465625 -28.12765625 39.74375 -28.125 39 C-28.12757812 38.278125 -28.13015625 37.55625 -28.1328125 36.8125 C-28 35 -28 35 -27 34 C-25.07332493 33.91251793 -23.14348139 33.89302666 -21.21484375 33.90234375 C-19.46010742 33.90717773 -19.46010742 33.90717773 -17.66992188 33.91210938 C-15.82237305 33.92467773 -15.82237305 33.92467773 -13.9375 33.9375 C-12.08415039 33.94426758 -12.08415039 33.94426758 -10.19335938 33.95117188 C-7.12885883 33.96300392 -4.06445279 33.97948827 -1 34 C-0.72897745 28.2206272 -1.04900969 23.74087056 -3.3125 18.3125 C-3.74175781 17.25675781 -4.17101562 16.20101562 -4.61328125 15.11328125 C-5.57299767 12.9586503 -6.5960885 10.83155486 -7.66796875 8.73046875 C-9 6 -9 6 -9 4 C-2.25 0 -2.25 0 0 0 Z " fill="#EDD2B2" transform="translate(92,67)"/>
<path d="M0 0 C4.52615993 3.67832017 8.39424999 7.41086363 12 12 C11.36191406 12.62648438 10.72382812 13.25296875 10.06640625 13.8984375 C9.24011719 14.71570312 8.41382812 15.53296875 7.5625 16.375 C6.73878906 17.18710937 5.91507813 17.99921875 5.06640625 18.8359375 C2.96565328 20.82348515 2.96565328 20.82348515 2 23 C-1.68069887 21.46356148 -3.98775204 19.21849055 -6.75 16.375 C-7.54921875 15.55773438 -8.3484375 14.74046875 -9.171875 13.8984375 C-9.77515625 13.27195312 -10.3784375 12.64546875 -11 12 C-7.49102731 7.81576108 -3.91939465 3.80411834 0 0 Z " fill="#EDD1B1" transform="translate(84,28)"/>
</svg>
