<?xml version="1.0" encoding="UTF-8"?>
<!DOCTYPE svg PUBLIC "-//W3C//DTD SVG 1.1//EN" "http://www.w3.org/Graphics/SVG/1.1/DTD/svg11.dtd">
<svg xmlns="http://www.w3.org/2000/svg" version="1.1" width="176px" height="158px" style="shape-rendering:geometricPrecision; text-rendering:geometricPrecision; image-rendering:optimizeQuality; fill-rule:evenodd; clip-rule:evenodd" xmlns:xlink="http://www.w3.org/1999/xlink">
<g><path style="opacity:1" fill="#fefefe" d="M -0.5,-0.5 C 58.1667,-0.5 116.833,-0.5 175.5,-0.5C 175.5,52.1667 175.5,104.833 175.5,157.5C 116.833,157.5 58.1667,157.5 -0.5,157.5C -0.5,104.833 -0.5,52.1667 -0.5,-0.5 Z"/></g>
<g><path style="opacity:1" fill="#edd2b1" d="M 108.5,26.5 C 112.631,30.1296 116.631,33.963 120.5,38C 116.667,41.8333 112.833,45.6667 109,49.5C 104.984,45.6516 101.151,41.6516 97.5,37.5C 101.521,34.1456 105.188,30.479 108.5,26.5 Z"/></g>
<g><path style="opacity:1" fill="#edd2b1" d="M 105.5,57.5 C 115.635,57.1084 122.468,61.7751 126,71.5C 130.614,81.5445 130.614,91.5445 126,101.5C 120.757,107.142 114.257,110.309 106.5,111C 89.8353,112.979 73.1687,112.979 56.5,111C 47.8333,110.6 42,106.434 39,98.5C 38.0253,90.7069 38.5253,83.0402 40.5,75.5C 43.4212,76.4066 46.4212,76.7399 49.5,76.5C 47.4426,83.4898 47.276,90.4898 49,97.5C 51.7716,99.7611 54.9382,101.261 58.5,102C 72.8333,102.667 87.1667,102.667 101.5,102C 104.914,101.703 108.247,101.036 111.5,100C 94.0201,98.2417 87.5201,88.7417 92,71.5C 94.7133,64.9558 99.2133,60.2892 105.5,57.5 Z"/></g>
<g><path style="opacity:1" fill="#fefdfd" d="M 106.5,67.5 C 111.919,66.9593 115.419,69.2926 117,74.5C 121.688,86.4953 117.521,91.3286 104.5,89C 100.741,85.2566 99.5739,80.7566 101,75.5C 102.273,72.4027 104.107,69.7361 106.5,67.5 Z"/></g>
</svg>
