<?xml version="1.0" encoding="UTF-8"?>
<!DOCTYPE svg PUBLIC "-//W3C//DTD SVG 1.1//EN" "http://www.w3.org/Graphics/SVG/1.1/DTD/svg11.dtd">
<svg xmlns="http://www.w3.org/2000/svg" version="1.1" width="176px" height="158px" style="shape-rendering:geometricPrecision; text-rendering:geometricPrecision; image-rendering:optimizeQuality; fill-rule:evenodd; clip-rule:evenodd" xmlns:xlink="http://www.w3.org/1999/xlink">
<g><path style="opacity:1" fill="#fefefe" d="M -0.5,-0.5 C 58.1667,-0.5 116.833,-0.5 175.5,-0.5C 175.5,52.1667 175.5,104.833 175.5,157.5C 116.833,157.5 58.1667,157.5 -0.5,157.5C -0.5,104.833 -0.5,52.1667 -0.5,-0.5 Z"/></g>
<g><path style="opacity:1" fill="#edd2b3" d="M 75.5,12.5 C 79.631,16.1296 83.631,19.963 87.5,24C 83.6516,28.0156 79.6516,31.8489 75.5,35.5C 71.4729,32.1396 67.8062,28.4729 64.5,24.5C 68.1886,20.4799 71.8553,16.4799 75.5,12.5 Z"/></g>
<g><path style="opacity:1" fill="#edd2b1" d="M 105.5,127.5 C 105.5,130.5 105.5,133.5 105.5,136.5C 99.5,136.5 93.5,136.5 87.5,136.5C 57.6204,132.073 49.4537,116.406 63,89.5C 66.2012,85.9636 69.7012,82.7969 73.5,80C 62.9607,74.7472 59.794,66.5805 64,55.5C 66.2215,51.6119 69.3882,48.7786 73.5,47C 79.3514,45.072 85.3514,43.9054 91.5,43.5C 91.5,46.8333 91.5,50.1667 91.5,53.5C 84.4274,52.94 78.2607,54.94 73,59.5C 71.2762,64.7314 72.7762,68.5647 77.5,71C 85.4321,72.1937 93.0987,71.3604 100.5,68.5C 102.309,71.5931 103.309,74.9264 103.5,78.5C 90.126,79.8972 78.9593,85.5638 70,95.5C 61.855,114.375 68.0216,124.875 88.5,127C 94.1569,127.499 99.8236,127.666 105.5,127.5 Z"/></g>
<g><path style="opacity:1" fill="#f2dfc9" d="M 105.5,127.5 C 106.479,130.625 106.813,133.958 106.5,137.5C 99.9779,137.823 93.6446,137.49 87.5,136.5C 93.5,136.5 99.5,136.5 105.5,136.5C 105.5,133.5 105.5,130.5 105.5,127.5 Z"/></g>
</svg>
