<?xml version="1.0" encoding="UTF-8"?>
<svg version="1.1" xmlns="http://www.w3.org/2000/svg" width="144" height="131">
<path d="M0 0 C47.52 0 95.04 0 144 0 C144 43.23 144 86.46 144 131 C96.48 131 48.96 131 0 131 C0 87.77 0 44.54 0 0 Z " fill="#FEFEFE" transform="translate(0,0)"/>
<path d="M0 0 C11.39796762 -0.83626393 21.27396542 0.65460924 32.27148438 3.77783203 C38.46589639 5.50972631 44.25283472 6.42257917 50.68823242 6.69360352 C51.45111572 6.79471436 52.21399902 6.8958252 53 7 C54.4783226 9.95664519 54.06032783 12.74229737 54 16 C52.45892578 16.36351562 52.45892578 16.36351562 50.88671875 16.734375 C35.12564666 20.51199547 19.63484268 24.74436543 10 39 C6.31877984 45.38078162 5.75450344 52.16747334 7.5859375 59.2734375 C10.01863241 65.09851429 14.48794645 68.19937732 20 71 C24.27061696 72.63471499 27.92884622 73.28368132 32.4921875 73.4140625 C33.69101563 73.45273438 34.88984375 73.49140625 36.125 73.53125 C37.3625 73.5621875 38.6 73.593125 39.875 73.625 C41.13570312 73.66367188 42.39640625 73.70234375 43.6953125 73.7421875 C46.79673137 73.83616989 49.89814886 73.92183411 53 74 C53 77.3 53 80.6 53 84 C16.86162603 84.60907372 16.86162603 84.60907372 4 72.625 C-2.01111563 66.0127728 -4.39421981 58.60280582 -4.27734375 49.78515625 C-3.43288634 41.3049008 0.42799459 34.28140425 6 28 C6.8971875 26.98099609 6.8971875 26.98099609 7.8125 25.94140625 C12.60890648 20.82588402 17.85067931 17.32668168 24 14 C20.95674905 12.26892001 18.49320255 11.66405388 15.015625 11.3671875 C14.08105469 11.28339844 13.14648438 11.19960938 12.18359375 11.11328125 C11.21550781 11.03464844 10.24742188 10.95601562 9.25 10.875 C8.26644531 10.78863281 7.28289063 10.70226563 6.26953125 10.61328125 C3.84697694 10.40160175 1.42355991 10.1998374 -1 10 C-0.67 6.7 -0.34 3.4 0 0 Z " fill="#EDD2B2" transform="translate(43,26)"/>
</svg>
