<?xml version="1.0" encoding="UTF-8"?>
<!DOCTYPE svg PUBLIC "-//W3C//DTD SVG 1.1//EN" "http://www.w3.org/Graphics/SVG/1.1/DTD/svg11.dtd">
<svg xmlns="http://www.w3.org/2000/svg" version="1.1" width="176px" height="158px" style="shape-rendering:geometricPrecision; text-rendering:geometricPrecision; image-rendering:optimizeQuality; fill-rule:evenodd; clip-rule:evenodd" xmlns:xlink="http://www.w3.org/1999/xlink">
<g><path style="opacity:1" fill="#fefefe" d="M -0.5,-0.5 C 58.1667,-0.5 116.833,-0.5 175.5,-0.5C 175.5,52.1667 175.5,104.833 175.5,157.5C 116.833,157.5 58.1667,157.5 -0.5,157.5C -0.5,104.833 -0.5,52.1667 -0.5,-0.5 Z"/></g>
<g><path style="opacity:1" fill="#edd2b1" d="M 79.5,43.5 C 102.94,42.1206 116.273,52.9539 119.5,76C 117.493,97.9944 105.493,107.328 83.5,104C 81.7216,103.296 79.8882,102.796 78,102.5C 68.2474,104.226 58.4141,104.893 48.5,104.5C 48.5,101.167 48.5,97.8333 48.5,94.5C 54.5092,94.6662 60.5092,94.4995 66.5,94C 59.9016,82.3028 61.5683,71.9695 71.5,63C 85.4798,56.5691 95.6465,60.4025 102,74.5C 103.201,81.8925 101.368,88.3925 96.5,94C 103.838,93.2541 108.004,89.0874 109,81.5C 110.775,64.0309 102.941,54.6976 85.5,53.5C 78.5902,53.8083 72.2569,55.8083 66.5,59.5C 63.0432,57.3884 61.3765,54.5551 61.5,51C 67.3281,47.7883 73.3281,45.2883 79.5,43.5 Z"/></g>
<g><path style="opacity:1" fill="#fefdfd" d="M 78.5,69.5 C 90.4077,68.8999 94.5744,74.2333 91,85.5C 81.2947,95.7338 75.128,93.9005 72.5,80C 72.8284,75.5061 74.8284,72.0061 78.5,69.5 Z"/></g>
</svg>
