<?xml version="1.0" encoding="UTF-8"?>
<svg version="1.1" xmlns="http://www.w3.org/2000/svg" width="144" height="131">
<path d="M0 0 C47.52 0 95.04 0 144 0 C144 43.23 144 86.46 144 131 C96.48 131 48.96 131 0 131 C0 87.77 0 44.54 0 0 Z " fill="#FEFEFE" transform="translate(0,0)"/>
<path d="M0 0 C11.42665496 -0.93208364 21.44897786 0.92618028 32.50927734 3.77783203 C39.68847551 5.60308911 46.59991173 6.62235978 54 7 C54 9.97 54 12.94 54 16 C52.96101563 16.24234375 51.92203125 16.4846875 50.8515625 16.734375 C34.41429075 20.64725905 19.69638511 25.43282034 9.68359375 39.90234375 C6.49315765 45.33831327 5.87796548 50.82452755 7 57 C9.04244217 62.14579954 11.67978325 66.59069323 16.5 69.5 C21.95660152 71.83854351 26.53065062 73.24373287 32.4921875 73.4140625 C33.69101563 73.45273438 34.88984375 73.49140625 36.125 73.53125 C37.3625 73.5621875 38.6 73.593125 39.875 73.625 C41.13570312 73.66367188 42.39640625 73.70234375 43.6953125 73.7421875 C46.79673137 73.83616989 49.89814886 73.92183411 53 74 C53 77.3 53 80.6 53 84 C17.75220114 84.85353414 17.75220114 84.85353414 5.7109375 73.921875 C-1.29942018 66.42716533 -3.61821816 59.60037857 -3.54638672 49.56030273 C-3.14917332 38.53465769 2.25058188 30.76185557 10.12109375 23.3359375 C15.07687299 19.31483033 20.43871856 16.12059366 26 13 C16.99592496 11.2729614 8.14034937 10.47449901 -1 10 C-0.67 6.7 -0.34 3.4 0 0 Z " fill="#EDD2B1" transform="translate(43,26)"/>
<path d="M0 0 C3.45201639 1.47721422 5.64961936 3.43794001 8.25 6.125 C8.95640625 6.84945312 9.6628125 7.57390625 10.390625 8.3203125 C11.18726563 9.15175781 11.18726563 9.15175781 12 10 C10.52278578 13.45201639 8.56205999 15.64961936 5.875 18.25 C5.15054688 18.95640625 4.42609375 19.6628125 3.6796875 20.390625 C3.12539062 20.92171875 2.57109375 21.4528125 2 22 C-1.45201639 20.52278578 -3.64961936 18.56205999 -6.25 15.875 C-6.95640625 15.15054688 -7.6628125 14.42609375 -8.390625 13.6796875 C-8.92171875 13.12539062 -9.4528125 12.57109375 -10 12 C-8.52278578 8.54798361 -6.56205999 6.35038064 -3.875 3.75 C-3.15054688 3.04359375 -2.42609375 2.3371875 -1.6796875 1.609375 C-1.12539062 1.07828125 -0.57109375 0.5471875 0 0 Z " fill="#EDD2B1" transform="translate(76,63)"/>
</svg>
