<?xml version="1.0" encoding="UTF-8"?>
<!DOCTYPE svg PUBLIC "-//W3C//DTD SVG 1.1//EN" "http://www.w3.org/Graphics/SVG/1.1/DTD/svg11.dtd">
<svg xmlns="http://www.w3.org/2000/svg" version="1.1" width="176px" height="158px" style="shape-rendering:geometricPrecision; text-rendering:geometricPrecision; image-rendering:optimizeQuality; fill-rule:evenodd; clip-rule:evenodd" xmlns:xlink="http://www.w3.org/1999/xlink">
<g><path style="opacity:1" fill="#fefefe" d="M -0.5,-0.5 C 58.1667,-0.5 116.833,-0.5 175.5,-0.5C 175.5,52.1667 175.5,104.833 175.5,157.5C 116.833,157.5 58.1667,157.5 -0.5,157.5C -0.5,104.833 -0.5,52.1667 -0.5,-0.5 Z"/></g>
<g><path style="opacity:1" fill="#edd2b1" d="M 103.5,30.5 C 106.5,30.5 109.5,30.5 112.5,30.5C 113.306,49.4955 113.473,68.4955 113,87.5C 110.62,102.544 101.787,110.71 86.5,112C 76.3647,113.042 66.3647,112.375 56.5,110C 52.1832,107.685 49.3498,104.185 48,99.5C 47.3127,93.7963 47.4793,88.1296 48.5,82.5C 51.4475,82.2229 54.2809,82.5562 57,83.5C 57.3333,88.5 57.6667,93.5 58,98.5C 59.008,100.259 60.508,101.426 62.5,102C 71.1667,102.667 79.8333,102.667 88.5,102C 96.9098,101.23 101.743,96.7302 103,88.5C 103.5,69.1695 103.667,49.8362 103.5,30.5 Z"/></g>
<g><path style="opacity:1" fill="#edd2b1" d="M 70.5,84.5 C 73.5184,84.6646 76.5184,84.498 79.5,84C 78.4734,83.4867 77.4734,82.9867 76.5,82.5C 70.9076,81.3751 69.0742,78.0418 71,72.5C 73.722,69.5564 76.8887,67.2231 80.5,65.5C 82.6533,68.1396 83.9866,71.1396 84.5,74.5C 83.325,74.281 82.325,74.6143 81.5,75.5C 85.0794,76.8716 88.246,78.8716 91,81.5C 92.4852,87.3763 90.3185,90.8763 84.5,92C 79.8452,92.4992 75.1785,92.6658 70.5,92.5C 70.5,89.8333 70.5,87.1667 70.5,84.5 Z"/></g>
<g><path style="opacity:1" fill="#f5e8d7" d="M 76.5,82.5 C 77.4734,82.9867 78.4734,83.4867 79.5,84C 76.5184,84.498 73.5184,84.6646 70.5,84.5C 72.5,83.8333 74.5,83.1667 76.5,82.5 Z"/></g>
</svg>
