<?xml version="1.0" encoding="UTF-8"?>
<svg version="1.1" xmlns="http://www.w3.org/2000/svg" width="176" height="158">
<path d="M0 0 C58.08 0 116.16 0 176 0 C176 52.14 176 104.28 176 158 C117.92 158 59.84 158 0 158 C0 105.86 0 53.72 0 0 Z " fill="#FEFEFE" transform="translate(0,0)"/>
<path d="M0 0 C11.42665496 -0.93208364 21.44897786 0.92618028 32.50927734 3.77783203 C39.68847551 5.60308911 46.59991173 6.62235978 54 7 C54 9.97 54 12.94 54 16 C52.96101563 16.24234375 51.92203125 16.4846875 50.8515625 16.734375 C34.41429075 20.64725905 19.69638511 25.43282034 9.68359375 39.90234375 C6.49315765 45.33831327 5.87796548 50.82452755 7 57 C9.04244217 62.14579954 11.67978325 66.59069323 16.5 69.5 C21.95660152 71.83854351 26.53065062 73.24373287 32.4921875 73.4140625 C33.69101563 73.45273438 34.88984375 73.49140625 36.125 73.53125 C37.3625 73.5621875 38.6 73.593125 39.875 73.625 C41.13570312 73.66367188 42.39640625 73.70234375 43.6953125 73.7421875 C46.79673137 73.83616989 49.89814886 73.92183411 53 74 C53 77.3 53 80.6 53 84 C17.75220114 84.85353414 17.75220114 84.85353414 5.7109375 73.921875 C-1.29942018 66.42716533 -3.61821816 59.60037857 -3.54638672 49.56030273 C-3.14917332 38.53465769 2.25058188 30.76185557 10.12109375 23.3359375 C15.07687299 19.31483033 20.43871856 16.12059366 26 13 C16.99592496 11.2729614 8.14034937 10.47449901 -1 10 C-0.67 6.7 -0.34 3.4 0 0 Z " fill="#EDD2B1" transform="translate(57,58)"/>
<path d="M0 0 C2.98711646 1.19377593 4.68688077 3.01814571 6.9296875 5.30859375 C7.72890625 6.11167969 8.528125 6.91476563 9.3515625 7.7421875 C11.1796875 9.87109375 11.1796875 9.87109375 11.1796875 11.87109375 C9.8046875 13.49609375 9.8046875 13.49609375 8.1796875 14.87109375 C7.5196875 14.87109375 6.8596875 14.87109375 6.1796875 14.87109375 C5.9115625 15.46921875 5.6434375 16.06734375 5.3671875 16.68359375 C4.19475283 18.84334183 2.98599468 20.22899631 1.1796875 21.87109375 C-2.50101137 20.33465523 -4.80806454 18.0895843 -7.5703125 15.24609375 C-8.36953125 14.42882813 -9.16875 13.6115625 -9.9921875 12.76953125 C-10.59546875 12.14304687 -11.19875 11.5165625 -11.8203125 10.87109375 C-9.83960813 8.52065789 -7.83449928 6.19286571 -5.8203125 3.87109375 C-5.1190625 3.04609375 -4.4178125 2.22109375 -3.6953125 1.37109375 C-1.8203125 -0.12890625 -1.8203125 -0.12890625 0 0 Z " fill="#EDD2B3" transform="translate(82.8203125,17.12890625)"/>
</svg>
