<?xml version="1.0" encoding="UTF-8"?>
<!DOCTYPE svg PUBLIC "-//W3C//DTD SVG 1.1//EN" "http://www.w3.org/Graphics/SVG/1.1/DTD/svg11.dtd">
<svg xmlns="http://www.w3.org/2000/svg" version="1.1" width="176px" height="158px" style="shape-rendering:geometricPrecision; text-rendering:geometricPrecision; image-rendering:optimizeQuality; fill-rule:evenodd; clip-rule:evenodd" xmlns:xlink="http://www.w3.org/1999/xlink">
<g><path style="opacity:1" fill="#fefefe" d="M -0.5,-0.5 C 58.1667,-0.5 116.833,-0.5 175.5,-0.5C 175.5,52.1667 175.5,104.833 175.5,157.5C 116.833,157.5 58.1667,157.5 -0.5,157.5C -0.5,104.833 -0.5,52.1667 -0.5,-0.5 Z"/></g>
<g><path style="opacity:1" fill="#edd1b1" d="M 97.5,30.5 C 100.5,30.5 103.5,30.5 106.5,30.5C 106.667,55.8355 106.5,81.1689 106,106.5C 102.484,134.443 87.6504,143.277 61.5,133C 57.3386,129.846 54.8386,125.679 54,120.5C 53.3415,110.814 53.5082,101.148 54.5,91.5C 57.7861,92.2071 61.1194,92.5405 64.5,92.5C 63.1922,97.7384 62.5255,103.072 62.5,108.5C 61.7411,124.239 69.0744,130.406 84.5,127C 89.5032,124.199 93.0032,120.032 95,114.5C 95.9664,108.87 96.6331,103.204 97,97.5C 97.5,75.1692 97.6666,52.8358 97.5,30.5 Z"/></g>
</svg>
