<?xml version="1.0" encoding="UTF-8"?>
<!DOCTYPE svg PUBLIC "-//W3C//DTD SVG 1.1//EN" "http://www.w3.org/Graphics/SVG/1.1/DTD/svg11.dtd">
<svg xmlns="http://www.w3.org/2000/svg" version="1.1" width="176px" height="158px" style="shape-rendering:geometricPrecision; text-rendering:geometricPrecision; image-rendering:optimizeQuality; fill-rule:evenodd; clip-rule:evenodd" xmlns:xlink="http://www.w3.org/1999/xlink">
<g><path style="opacity:1" fill="#fefefe" d="M -0.5,-0.5 C 58.1667,-0.5 116.833,-0.5 175.5,-0.5C 175.5,52.1667 175.5,104.833 175.5,157.5C 116.833,157.5 58.1667,157.5 -0.5,157.5C -0.5,104.833 -0.5,52.1667 -0.5,-0.5 Z"/></g>
<g><path style="opacity:1" fill="#edd2b3" d="M 86.5,51.5 C 97.3144,51.6644 104.148,56.9978 107,67.5C 108.759,74.7962 106.926,80.9629 101.5,86C 99.7536,86.4709 98.087,87.1376 96.5,88C 89.1667,88.3333 81.8333,88.6667 74.5,89C 73.0692,89.4652 71.9025,90.2986 71,91.5C 70.9729,102.826 71.1396,114.16 71.5,125.5C 68.1667,125.5 64.8333,125.5 61.5,125.5C 60.8666,113.502 60.6999,101.502 61,89.5C 63.2563,84.2425 67.0896,80.7425 72.5,79C 80.1667,78.6667 87.8333,78.3333 95.5,78C 98.5042,72.0609 97.5042,66.7276 92.5,62C 87.9024,60.9094 85.0691,62.7427 84,67.5C 82.8512,70.3926 82.3512,73.3926 82.5,76.5C 79.1667,76.5 75.8333,76.5 72.5,76.5C 72.959,68.4875 75.6256,61.3209 80.5,55C 82.4319,53.5415 84.4319,52.3748 86.5,51.5 Z"/></g>
</svg>
