<?xml version="1.0" encoding="UTF-8"?>
<!DOCTYPE svg PUBLIC "-//W3C//DTD SVG 1.1//EN" "http://www.w3.org/Graphics/SVG/1.1/DTD/svg11.dtd">
<svg xmlns="http://www.w3.org/2000/svg" version="1.1" width="176px" height="158px" style="shape-rendering:geometricPrecision; text-rendering:geometricPrecision; image-rendering:optimizeQuality; fill-rule:evenodd; clip-rule:evenodd" xmlns:xlink="http://www.w3.org/1999/xlink">
<g><path style="opacity:1" fill="#fefefe" d="M -0.5,-0.5 C 58.1667,-0.5 116.833,-0.5 175.5,-0.5C 175.5,52.1667 175.5,104.833 175.5,157.5C 116.833,157.5 58.1667,157.5 -0.5,157.5C -0.5,104.833 -0.5,52.1667 -0.5,-0.5 Z"/></g>
<g><path style="opacity:1" fill="#edd1b1" d="M 81.5,51.5 C 85.631,55.1296 89.631,58.963 93.5,63C 89.6667,66.8333 85.8333,70.6667 82,74.5C 78.1667,70.6667 74.3333,66.8333 70.5,63C 74.3705,59.2977 78.0371,55.4643 81.5,51.5 Z"/></g>
<g><path style="opacity:1" fill="#edd2b1" d="M 104.5,66.5 C 107.5,66.5 110.5,66.5 113.5,66.5C 115.356,78.3887 114.523,90.0554 111,101.5C 106.438,111.029 98.9381,116.529 88.5,118C 77.4661,119.95 67.6328,117.45 59,110.5C 55.6317,106.065 53.6317,101.065 53,95.5C 52.5229,87.8219 52.6895,80.1552 53.5,72.5C 56.8333,72.8333 60.1667,73.1667 63.5,73.5C 61.7798,82.9845 62.2798,92.3178 65,101.5C 66.9605,104.135 69.4605,105.969 72.5,107C 81.662,109.708 90.3287,108.708 98.5,104C 101.012,100.142 102.845,95.9753 104,91.5C 104.5,83.1733 104.666,74.84 104.5,66.5 Z"/></g>
</svg>
