<?xml version="1.0" encoding="UTF-8"?>
<!DOCTYPE svg PUBLIC "-//W3C//DTD SVG 1.1//EN" "http://www.w3.org/Graphics/SVG/1.1/DTD/svg11.dtd">
<svg xmlns="http://www.w3.org/2000/svg" version="1.1" width="176px" height="158px" style="shape-rendering:geometricPrecision; text-rendering:geometricPrecision; image-rendering:optimizeQuality; fill-rule:evenodd; clip-rule:evenodd" xmlns:xlink="http://www.w3.org/1999/xlink">
<g><path style="opacity:1" fill="#fefefe" d="M -0.5,-0.5 C 58.1667,-0.5 116.833,-0.5 175.5,-0.5C 175.5,52.1667 175.5,104.833 175.5,157.5C 116.833,157.5 58.1667,157.5 -0.5,157.5C -0.5,104.833 -0.5,52.1667 -0.5,-0.5 Z"/></g>
<g><path style="opacity:1" fill="#edd2b2" d="M 84.5,27.5 C 87.4348,30.0933 90.4348,32.76 93.5,35.5C 96.5,32.8333 99.5,30.1667 102.5,27.5C 106.5,30.8333 110.167,34.5 113.5,38.5C 110.167,42.5 106.5,46.1667 102.5,49.5C 99.2139,47.5488 96.2139,45.2154 93.5,42.5C 91.0163,44.483 88.6829,46.6496 86.5,49C 85.5,49.6667 84.5,49.6667 83.5,49C 80.1168,45.9533 77.1168,42.62 74.5,39C 77.6561,35.0107 80.9894,31.1774 84.5,27.5 Z"/></g>
<g><path style="opacity:1" fill="#edd2b1" d="M 88.5,58.5 C 96.8518,56.9982 103.352,59.6648 108,66.5C 116.665,82.8211 116.665,99.1544 108,115.5C 104.213,121.148 99.046,124.982 92.5,127C 83.8095,128.813 75.1428,128.813 66.5,127C 58.4195,123.914 53.5861,118.081 52,109.5C 51.483,100.155 51.6497,90.8222 52.5,81.5C 55.8333,81.8333 59.1667,82.1667 62.5,82.5C 60.9501,90.0985 60.4501,97.7651 61,105.5C 61.4528,111.286 64.2862,115.453 69.5,118C 78.1552,119.274 86.4885,118.274 94.5,115C 99.9701,110.896 102.97,105.396 103.5,98.5C 82.7368,102.903 73.5701,94.5696 76,73.5C 78.2388,66.7721 82.4055,61.7721 88.5,58.5 Z"/></g>
<g><path style="opacity:1" fill="#fefdfc" d="M 91.5,67.5 C 96.8397,67.665 100.34,70.3317 102,75.5C 105.995,86.5071 102.161,91.3405 90.5,90C 88.714,89.2155 87.214,88.0488 86,86.5C 84.0693,78.8601 85.9026,72.5267 91.5,67.5 Z"/></g>
</svg>
