<?xml version="1.0" encoding="UTF-8"?>
<svg version="1.1" xmlns="http://www.w3.org/2000/svg" width="176" height="158">
<path d="M0 0 C58.08 0 116.16 0 176 0 C176 52.14 176 104.28 176 158 C117.92 158 59.84 158 0 158 C0 105.86 0 53.72 0 0 Z " fill="#FEFEFE" transform="translate(0,0)"/>
<path d="M0 0 C4.70404562 11.14410808 4.69738245 24.18166452 0.875 35.5625 C-4.9994041 49.82890995 -14.712747 59.31383519 -28 67 C-28.66 67 -29.32 67 -30 67 C-31.2890625 65.25 -31.2890625 65.25 -32.625 63 C-33.07101563 62.2575 -33.51703125 61.515 -33.9765625 60.75 C-34.31429687 60.1725 -34.65203125 59.595 -35 59 C-33.62328125 58.07380859 -33.62328125 58.07380859 -32.21875 57.12890625 C-21.3131852 49.65938204 -10.93763703 41.59640192 -8 28 C-7.91130457 26.5802037 -7.86940333 25.15693731 -7.8671875 23.734375 C-7.86589844 22.92613281 -7.86460938 22.11789063 -7.86328125 21.28515625 C-7.86908203 20.03025391 -7.86908203 20.03025391 -7.875 18.75 C-7.87113281 17.92886719 -7.86726563 17.10773438 -7.86328125 16.26171875 C-7.87148272 11.08659294 -8.25652257 6.12173338 -9 1 C-5.8035914 -0.06546953 -3.34252724 -0.07427838 0 0 Z " fill="#EDD2B2" transform="translate(95,52)"/>
</svg>
