<?xml version="1.0" encoding="UTF-8"?>
<!DOCTYPE svg PUBLIC "-//W3C//DTD SVG 1.1//EN" "http://www.w3.org/Graphics/SVG/1.1/DTD/svg11.dtd">
<svg xmlns="http://www.w3.org/2000/svg" version="1.1" width="176px" height="158px" style="shape-rendering:geometricPrecision; text-rendering:geometricPrecision; image-rendering:optimizeQuality; fill-rule:evenodd; clip-rule:evenodd" xmlns:xlink="http://www.w3.org/1999/xlink">
<g><path style="opacity:1" fill="#fefefe" d="M -0.5,-0.5 C 58.1667,-0.5 116.833,-0.5 175.5,-0.5C 175.5,52.1667 175.5,104.833 175.5,157.5C 116.833,157.5 58.1667,157.5 -0.5,157.5C -0.5,104.833 -0.5,52.1667 -0.5,-0.5 Z"/></g>
<g><path style="opacity:1" fill="#edd1b1" d="M 116.5,49.5 C 134.636,49.4787 142.136,58.4787 139,76.5C 134.296,84.8534 127.129,89.6867 117.5,91C 106.873,92.2761 96.2068,92.7761 85.5,92.5C 80.4589,113.037 67.4589,120.87 46.5,116C 39.9028,113.737 35.7361,109.237 34,102.5C 31.949,93.1182 32.1157,83.7849 34.5,74.5C 37.5448,74.5079 40.5448,74.8413 43.5,75.5C 42.5101,83.4772 42.3435,91.4772 43,99.5C 44.1049,102.937 46.2716,105.437 49.5,107C 62.8536,110.078 71.687,105.245 76,92.5C 77.711,85.5225 77.8777,78.5225 76.5,71.5C 79.8333,71.5 83.1667,71.5 86.5,71.5C 86.3505,72.552 86.5172,73.552 87,74.5C 94.9441,63.7055 104.777,55.3721 116.5,49.5 Z"/></g>
<g><path style="opacity:1" fill="#fefdfd" d="M 117.5,59.5 C 128.16,58.3278 132.327,62.9945 130,73.5C 125.967,78.269 120.8,81.1023 114.5,82C 107.808,82.8309 101.142,82.6642 94.5,81.5C 100.288,72.0416 107.955,64.7083 117.5,59.5 Z"/></g>
</svg>
