<?xml version="1.0" encoding="UTF-8"?>
<!DOCTYPE svg PUBLIC "-//W3C//DTD SVG 1.1//EN" "http://www.w3.org/Graphics/SVG/1.1/DTD/svg11.dtd">
<svg xmlns="http://www.w3.org/2000/svg" version="1.1" width="176px" height="158px" style="shape-rendering:geometricPrecision; text-rendering:geometricPrecision; image-rendering:optimizeQuality; fill-rule:evenodd; clip-rule:evenodd" xmlns:xlink="http://www.w3.org/1999/xlink">
<g><path style="opacity:1" fill="#fefefe" d="M -0.5,-0.5 C 58.1667,-0.5 116.833,-0.5 175.5,-0.5C 175.5,52.1667 175.5,104.833 175.5,157.5C 116.833,157.5 58.1667,157.5 -0.5,157.5C -0.5,104.833 -0.5,52.1667 -0.5,-0.5 Z"/></g>
<g><path style="opacity:1" fill="#edd2b2" d="M 135.5,52.5 C 136.29,53.6085 136.79,54.9419 137,56.5C 138.093,65.6576 137.426,74.6576 135,83.5C 130.453,88.726 124.953,89.8926 118.5,87C 115.354,84.6884 112.354,82.1884 109.5,79.5C 103.971,87.1208 96.6376,89.7875 87.5,87.5C 83.2315,109.233 70.2315,117.4 48.5,112C 44.0962,110.223 40.5962,107.39 38,103.5C 34.0195,92.0739 33.3528,80.4072 36,68.5C 39.0469,68.0712 42.2136,68.0712 45.5,68.5C 44.4861,77.4774 44.3194,86.4774 45,95.5C 46.1049,98.9371 48.2716,101.437 51.5,103C 64.813,106.097 73.6463,101.264 78,88.5C 78.4998,78.5056 78.6665,68.5056 78.5,58.5C 81.8333,58.5 85.1667,58.5 88.5,58.5C 88.1959,64.5771 88.6959,70.5771 90,76.5C 92.1529,78.4439 94.6529,78.9439 97.5,78C 103.908,71.2076 106.908,63.0409 106.5,53.5C 109.843,54.2239 113.176,55.0572 116.5,56C 112.296,66.0704 114.963,73.5704 124.5,78.5C 125.442,78.3918 126.275,78.0585 127,77.5C 127.818,74.8929 128.318,72.2263 128.5,69.5C 127.724,64.1931 127.391,58.8598 127.5,53.5C 130.385,53.8064 133.052,53.4731 135.5,52.5 Z"/></g>
</svg>
