<?xml version="1.0" encoding="UTF-8"?>
<!DOCTYPE svg PUBLIC "-//W3C//DTD SVG 1.1//EN" "http://www.w3.org/Graphics/SVG/1.1/DTD/svg11.dtd">
<svg xmlns="http://www.w3.org/2000/svg" version="1.1" width="176px" height="158px" style="shape-rendering:geometricPrecision; text-rendering:geometricPrecision; image-rendering:optimizeQuality; fill-rule:evenodd; clip-rule:evenodd" xmlns:xlink="http://www.w3.org/1999/xlink">
<g><path style="opacity:1" fill="#fefefe" d="M -0.5,-0.5 C 58.1667,-0.5 116.833,-0.5 175.5,-0.5C 175.5,52.1667 175.5,104.833 175.5,157.5C 116.833,157.5 58.1667,157.5 -0.5,157.5C -0.5,104.833 -0.5,52.1667 -0.5,-0.5 Z"/></g>
<g><path style="opacity:1" fill="#edd1b0" d="M 109.5,18.5 C 113.75,21.0786 117.417,24.4119 120.5,28.5C 117.5,32.1667 114.167,35.5 110.5,38.5C 106.833,35.1667 103.167,31.8333 99.5,28.5C 103.161,25.5061 106.494,22.1727 109.5,18.5 Z"/></g>
<g><path style="opacity:1" fill="#edd2b2" d="M 99.5,32.5 C 102.8,35.6258 106.3,38.6258 110,41.5C 113.62,38.8832 116.953,35.8832 120,32.5C 123.5,36 127,39.5 130.5,43C 127.256,46.1856 124.256,49.519 121.5,53C 120.5,53.6667 119.5,53.6667 118.5,53C 115.667,50.1667 112.833,47.3333 110,44.5C 106.985,47.6828 103.818,50.6828 100.5,53.5C 96.6341,50.4684 93.3008,46.9684 90.5,43C 93.3222,39.3447 96.3222,35.8447 99.5,32.5 Z"/></g>
<g><path style="opacity:1" fill="#edd1b1" d="M 107.5,64.5 C 110.945,65.0926 114.279,66.0926 117.5,67.5C 113.488,76.3032 115.488,83.4699 123.5,89C 125.134,89.4935 126.801,89.6602 128.5,89.5C 129.473,81.1871 129.473,72.8538 128.5,64.5C 131.5,64.5 134.5,64.5 137.5,64.5C 139.232,74.636 138.732,84.636 136,94.5C 131.782,99.6297 126.616,100.796 120.5,98C 116.759,96.2621 113.592,93.7621 111,90.5C 105.192,98.0465 97.6919,100.713 88.5,98.5C 84.2634,120.191 71.2634,128.358 49.5,123C 42.9023,120.329 38.7356,115.496 37,108.5C 34.9908,98.4578 35.1574,88.4578 37.5,78.5C 40.4552,79.1587 43.4552,79.4921 46.5,79.5C 45.5248,88.481 45.3582,97.481 46,106.5C 47.1049,109.937 49.2716,112.437 52.5,114C 65.8536,117.078 74.687,112.245 79,99.5C 79.9061,95.7212 80.4061,91.8878 80.5,88C 79.8622,81.8474 79.5289,75.6807 79.5,69.5C 82.8333,69.5 86.1667,69.5 89.5,69.5C 89.1959,75.5771 89.6959,81.5771 91,87.5C 93.1529,89.4439 95.6529,89.9439 98.5,89C 101.433,86.7357 103.6,83.9024 105,80.5C 106.288,75.2274 107.122,69.894 107.5,64.5 Z"/></g>
</svg>
