<?xml version="1.0" encoding="UTF-8"?>
<svg version="1.1" xmlns="http://www.w3.org/2000/svg" width="144" height="131">
<path d="M0 0 C47.52 0 95.04 0 144 0 C144 43.23 144 86.46 144 131 C96.48 131 48.96 131 0 131 C0 87.77 0 44.54 0 0 Z " fill="#FEFEFE" transform="translate(0,0)"/>
<path d="M0 0 C3.3 0 6.6 0 10 0 C9.6937875 7.96152504 8.81984327 14.45878413 4 21 C-8.92358651 32.87166668 -27.47557706 31.6392084 -43.80566406 31.18798828 C-52.24201465 30.69150479 -59.61331499 28.73588291 -66 23 C-68.98088982 18.47727062 -69.7720008 14.32482606 -69 9 C-68.17353198 6.21660771 -67.14750002 3.67750005 -66 1 C-61.545 1.99 -61.545 1.99 -57 3 C-57 7.62 -57 12.24 -57 17 C-51.96498904 19.46021067 -47.86824331 20.45806912 -42.23046875 20.43359375 C-41.14890251 20.44145653 -41.14890251 20.44145653 -40.04548645 20.44947815 C-38.52862832 20.45586309 -37.01172045 20.45460738 -35.49487305 20.44604492 C-33.20334255 20.43755867 -30.91433044 20.4663021 -28.62304688 20.49804688 C-20.71945671 20.53725599 -12.82317054 20.54670869 -6 16 C-1.85024099 11.09344603 -0.74389626 6.32311823 0 0 Z " fill="#EDD2B2" transform="translate(101,59)"/>
<path d="M0 0 C3.36748512 1.51947499 4.60840337 2.52100842 6 6 C6.66 6 7.32 6 8 6 C8 6.66 8 7.32 8 8 C8.53109375 7.4946875 9.0621875 6.989375 9.609375 6.46875 C10.31578125 5.8190625 11.0221875 5.169375 11.75 4.5 C12.44609375 3.8503125 13.1421875 3.200625 13.859375 2.53125 C16 1 16 1 20 1 C22.359375 2.96875 22.359375 2.96875 24.75 5.5 C25.54921875 6.3353125 26.3484375 7.170625 27.171875 8.03125 C27.77515625 8.6809375 28.3784375 9.330625 29 10 C27.52278578 13.45201639 25.56205999 15.64961936 22.875 18.25 C22.15054688 18.95640625 21.42609375 19.6628125 20.6796875 20.390625 C20.12539062 20.92171875 19.57109375 21.4528125 19 22 C16.40413735 20.80482157 14.96551446 19.96228144 13 17.8125 C11.21021511 15.79754615 11.21021511 15.79754615 9.0625 15.9375 C6.72958809 16.99667138 6.72958809 16.99667138 4.5 19.625 C3.675 20.40875 2.85 21.1925 2 22 C-0.80160845 21.85254692 -1.84235054 21.15432352 -3.8515625 19.1875 C-4.72941406 18.1046875 -4.72941406 18.1046875 -5.625 17 C-7.94555299 14.04427685 -7.94555299 14.04427685 -11 12 C-9.49650623 8.33213607 -7.36271208 6.31089607 -4.375 3.75 C-3.14910156 2.69039062 -3.14910156 2.69039062 -1.8984375 1.609375 C-1.27195312 1.07828125 -0.64546875 0.5471875 0 0 Z " fill="#EDD2B2" transform="translate(61,36)"/>
</svg>
