<?xml version="1.0" encoding="UTF-8"?>
<!DOCTYPE svg PUBLIC "-//W3C//DTD SVG 1.1//EN" "http://www.w3.org/Graphics/SVG/1.1/DTD/svg11.dtd">
<svg xmlns="http://www.w3.org/2000/svg" version="1.1" width="176px" height="158px" style="shape-rendering:geometricPrecision; text-rendering:geometricPrecision; image-rendering:optimizeQuality; fill-rule:evenodd; clip-rule:evenodd" xmlns:xlink="http://www.w3.org/1999/xlink">
<g><path style="opacity:1" fill="#fefefe" d="M -0.5,-0.5 C 58.1667,-0.5 116.833,-0.5 175.5,-0.5C 175.5,52.1667 175.5,104.833 175.5,157.5C 116.833,157.5 58.1667,157.5 -0.5,157.5C -0.5,104.833 -0.5,52.1667 -0.5,-0.5 Z"/></g>
<g><path style="opacity:1" fill="#f1dbc1" d="M 70.5,32.5 C 70.1667,32.5 69.8333,32.5 69.5,32.5C 66.8333,32.5 64.1667,32.5 61.5,32.5C 61.5,55.5 61.5,78.5 61.5,101.5C 59.2646,101.795 57.2646,101.461 55.5,100.5C 57.1667,100.5 58.8333,100.5 60.5,100.5C 60.5,77.5 60.5,54.5 60.5,31.5C 64.0419,31.1872 67.3752,31.5206 70.5,32.5 Z"/></g>
<g><path style="opacity:1" fill="#edd1b1" d="M 69.5,32.5 C 69.1671,51.5117 69.5004,70.5117 70.5,89.5C 71.1067,89.3764 71.44,89.0431 71.5,88.5C 77.9018,79.6067 86.2351,73.1067 96.5,69C 111.062,67.3963 118.728,73.8963 119.5,88.5C 120.026,94.9494 117.692,100.116 112.5,104C 100.261,110.159 87.2606,112.659 73.5,111.5C 65.4875,111.333 57.4875,111 49.5,110.5C 49.804,107.478 50.304,104.478 51,101.5C 52.3561,100.62 53.8561,100.286 55.5,100.5C 57.2646,101.461 59.2646,101.795 61.5,101.5C 61.5,78.5 61.5,55.5 61.5,32.5C 64.1667,32.5 66.8333,32.5 69.5,32.5 Z"/></g>
<g><path style="opacity:1" fill="#efd7bb" d="M 69.5,32.5 C 69.8333,32.5 70.1667,32.5 70.5,32.5C 70.1698,51.3408 70.5031,70.0075 71.5,88.5C 71.44,89.0431 71.1067,89.3764 70.5,89.5C 69.5004,70.5117 69.1671,51.5117 69.5,32.5 Z"/></g>
<g><path style="opacity:1" fill="#fefdfd" d="M 97.5,78.5 C 107.659,77.1581 111.826,81.4914 110,91.5C 106.386,97.0633 101.219,100.23 94.5,101C 87.5,101.667 80.5,101.667 73.5,101C 79.808,91.5199 87.808,84.0199 97.5,78.5 Z"/></g>
</svg>
