<?xml version="1.0" encoding="UTF-8"?>
<svg version="1.1" xmlns="http://www.w3.org/2000/svg" width="144" height="131">
<path d="M0 0 C47.52 0 95.04 0 144 0 C144 43.23 144 86.46 144 131 C96.48 131 48.96 131 0 131 C0 87.77 0 44.54 0 0 Z " fill="#FEFEFE" transform="translate(0,0)"/>
<path d="M0 0 C3.3 0 6.6 0 10 0 C9.6937875 7.96152504 8.81984327 14.45878413 4 21 C-8.92358651 32.87166668 -27.47557706 31.6392084 -43.80566406 31.18798828 C-52.24201465 30.69150479 -59.61331499 28.73588291 -66 23 C-68.98088982 18.47727062 -69.7720008 14.32482606 -69 9 C-68.17353198 6.21660771 -67.14750002 3.67750005 -66 1 C-61.545 1.99 -61.545 1.99 -57 3 C-57 7.62 -57 12.24 -57 17 C-51.96498904 19.46021067 -47.86824331 20.45806912 -42.23046875 20.43359375 C-41.14890251 20.44145653 -41.14890251 20.44145653 -40.04548645 20.44947815 C-38.52862832 20.45586309 -37.01172045 20.45460738 -35.49487305 20.44604492 C-33.20334255 20.43755867 -30.91433044 20.4663021 -28.62304688 20.49804688 C-20.71945671 20.53725599 -12.82317054 20.54670869 -6 16 C-1.85024099 11.09344603 -0.74389626 6.32311823 0 0 Z " fill="#EDD2B2" transform="translate(101,63)"/>
<path d="M0 0 C1.12588014 0.95729916 2.2506715 1.91587895 3.375 2.875 C4.00148438 3.40867188 4.62796875 3.94234375 5.2734375 4.4921875 C6.55836651 5.61432007 7.79371975 6.79371975 9 8 C12.36432276 7.67861144 13.98817404 6.35354137 16.25 3.9375 C16.77078125 3.38964844 17.2915625 2.84179688 17.828125 2.27734375 C18.21484375 1.85582031 18.6015625 1.43429688 19 1 C22.21524305 2.40844718 24.32183868 4.10344786 26.75 6.625 C27.67039062 7.57246094 27.67039062 7.57246094 28.609375 8.5390625 C29.29773438 9.26222656 29.29773438 9.26222656 30 10 C28.59155282 13.21524305 26.89655214 15.32183868 24.375 17.75 C23.74335937 18.36359375 23.11171875 18.9771875 22.4609375 19.609375 C21.97882813 20.06828125 21.49671875 20.5271875 21 21 C16.70621187 19.07712966 14.22846299 16.37521131 11 13 C7.54718834 14.15093722 6.61917837 15.3205993 4.3125 18.0625 C3.68988281 18.79597656 3.06726562 19.52945313 2.42578125 20.28515625 C1.95527344 20.85105469 1.48476563 21.41695312 1 22 C-2.80635497 18.79239749 -6.54563567 15.59253891 -10 12 C-8.52278578 8.54798361 -6.56205999 6.35038064 -3.875 3.75 C-3.15054688 3.04359375 -2.42609375 2.3371875 -1.6796875 1.609375 C-1.12539063 1.07828125 -0.57109375 0.5471875 0 0 Z " fill="#EDD2B2" transform="translate(60,42)"/>
<path d="M0 0 C3.21524305 1.40844718 5.32183868 3.10344786 7.75 5.625 C8.67039062 6.57246094 8.67039062 6.57246094 9.609375 7.5390625 C10.06828125 8.02117188 10.5271875 8.50328125 11 9 C9.52278578 12.45201639 7.56205999 14.64961936 4.875 17.25 C4.15054688 17.95640625 3.42609375 18.6628125 2.6796875 19.390625 C2.12539062 19.92171875 1.57109375 20.4528125 1 21 C-2.80635497 17.79239749 -6.54563567 14.59253891 -10 11 C-8.55218207 7.55571735 -6.72305391 5.63869038 -3.875 3.25 C-3.15054688 2.63640625 -2.42609375 2.0228125 -1.6796875 1.390625 C-0.84824219 0.70226562 -0.84824219 0.70226562 0 0 Z " fill="#EDD2B3" transform="translate(70,28)"/>
<path d="M0 0 C0.99 0.33 1.98 0.66 3 1 C0.69 3.31 -1.62 5.62 -4 8 C-4.33 7.01 -4.66 6.02 -5 5 C-3.35 3.35 -1.7 1.7 0 0 Z " fill="#FBF5EE" transform="translate(76,43)"/>
</svg>
