<?xml version="1.0" encoding="UTF-8"?>
<!DOCTYPE svg PUBLIC "-//W3C//DTD SVG 1.1//EN" "http://www.w3.org/Graphics/SVG/1.1/DTD/svg11.dtd">
<svg xmlns="http://www.w3.org/2000/svg" version="1.1" width="176px" height="158px" style="shape-rendering:geometricPrecision; text-rendering:geometricPrecision; image-rendering:optimizeQuality; fill-rule:evenodd; clip-rule:evenodd" xmlns:xlink="http://www.w3.org/1999/xlink">
<g><path style="opacity:1" fill="#fefefe" d="M -0.5,-0.5 C 58.1667,-0.5 116.833,-0.5 175.5,-0.5C 175.5,52.1667 175.5,104.833 175.5,157.5C 116.833,157.5 58.1667,157.5 -0.5,157.5C -0.5,104.833 -0.5,52.1667 -0.5,-0.5 Z"/></g>
<g><path style="opacity:1" fill="#edd1b1" d="M 79.5,46.5 C 88.0267,44.6113 94.5267,47.278 99,54.5C 106.543,69.2812 107.209,84.2812 101,99.5C 91.5751,108.915 80.5751,115.915 68,120.5C 65.5674,118.302 64.2341,115.635 64,112.5C 71.9149,108.126 79.7482,103.626 87.5,99C 90.0168,96.6506 92.3501,94.1506 94.5,91.5C 71.8794,90.7277 63.0461,79.3943 68,57.5C 70.4373,52.2262 74.2706,48.5595 79.5,46.5 Z"/></g>
<g><path style="opacity:1" fill="#fefdfc" d="M 82.5,55.5 C 85.505,55.253 88.005,56.253 90,58.5C 94.0586,65.6247 95.892,73.2913 95.5,81.5C 86.639,82.4877 80.139,79.1543 76,71.5C 74.7697,64.6725 76.9364,59.3391 82.5,55.5 Z"/></g>
</svg>
