<?xml version="1.0" encoding="UTF-8"?>
<!DOCTYPE svg PUBLIC "-//W3C//DTD SVG 1.1//EN" "http://www.w3.org/Graphics/SVG/1.1/DTD/svg11.dtd">
<svg xmlns="http://www.w3.org/2000/svg" version="1.1" width="176px" height="158px" style="shape-rendering:geometricPrecision; text-rendering:geometricPrecision; image-rendering:optimizeQuality; fill-rule:evenodd; clip-rule:evenodd" xmlns:xlink="http://www.w3.org/1999/xlink">
<g><path style="opacity:1" fill="#fefefe" d="M -0.5,-0.5 C 58.1667,-0.5 116.833,-0.5 175.5,-0.5C 175.5,52.1667 175.5,104.833 175.5,157.5C 116.833,157.5 58.1667,157.5 -0.5,157.5C -0.5,104.833 -0.5,52.1667 -0.5,-0.5 Z"/></g>
<g><path style="opacity:1" fill="#edd2b1" d="M 94.5,40.5 C 101.99,39.8835 108.323,42.2169 113.5,47.5C 111.471,49.8585 109.471,52.1918 107.5,54.5C 104.072,51.2812 100.072,50.1145 95.5,51C 92.6169,55.2685 92.9502,59.2685 96.5,63C 103.287,65.0346 109.453,68.2013 115,72.5C 118.682,81.5528 116.849,89.3861 109.5,96C 94.3356,105.792 78.6689,106.792 62.5,99C 53.7468,91.8441 50.5802,82.6774 53,71.5C 54.7363,67.0284 57.2363,63.0284 60.5,59.5C 62.8333,61.5 65.1667,63.5 67.5,65.5C 60.6616,72.5379 59.8283,80.2046 65,88.5C 69.6904,92.5535 75.1904,94.5535 81.5,94.5C 89.8799,94.6567 97.5466,92.49 104.5,88C 107.194,85.3466 108.027,82.1799 107,78.5C 100.639,75.7128 94.4719,72.5462 88.5,69C 80.1566,57.1498 82.1566,47.6498 94.5,40.5 Z"/></g>
<g><path style="opacity:1" fill="#edd2b1" d="M 72.5,112.5 C 76.067,114.557 79.2337,117.223 82,120.5C 84.6824,117.65 87.5157,114.984 90.5,112.5C 94.5,115.833 98.1667,119.5 101.5,123.5C 98.1667,127.5 94.5,131.167 90.5,134.5C 87.5157,132.016 84.6824,129.35 82,126.5C 79.3176,129.35 76.4843,132.016 73.5,134.5C 69.3014,131.136 65.6347,127.302 62.5,123C 65.9693,119.696 69.3026,116.196 72.5,112.5 Z"/></g>
</svg>
