<?xml version="1.0" encoding="UTF-8"?>
<!DOCTYPE svg PUBLIC "-//W3C//DTD SVG 1.1//EN" "http://www.w3.org/Graphics/SVG/1.1/DTD/svg11.dtd">
<svg xmlns="http://www.w3.org/2000/svg" version="1.1" width="176px" height="158px" style="shape-rendering:geometricPrecision; text-rendering:geometricPrecision; image-rendering:optimizeQuality; fill-rule:evenodd; clip-rule:evenodd" xmlns:xlink="http://www.w3.org/1999/xlink">
<g><path style="opacity:1" fill="#fefefe" d="M -0.5,-0.5 C 58.1667,-0.5 116.833,-0.5 175.5,-0.5C 175.5,52.1667 175.5,104.833 175.5,157.5C 116.833,157.5 58.1667,157.5 -0.5,157.5C -0.5,104.833 -0.5,52.1667 -0.5,-0.5 Z"/></g>
<g><path style="opacity:1" fill="#edd2b2" d="M 90.5,23.5 C 91.552,23.3505 92.552,23.5172 93.5,24C 96.8333,27.3333 100.167,30.6667 103.5,34C 100.179,38.1208 96.5126,41.9542 92.5,45.5C 88.3484,41.8489 84.3484,38.0156 80.5,34C 84.0374,30.6309 87.3707,27.1309 90.5,23.5 Z"/></g>
<g><path style="opacity:1" fill="#edd2b2" d="M 91.5,58.5 C 93.8333,58.5 96.1667,58.5 98.5,58.5C 105.791,88.4839 95.9575,110.817 69,125.5C 66.7152,123.093 64.5486,120.593 62.5,118C 73.283,112.217 81.783,104.051 88,93.5C 92.442,82.5755 92.6087,71.5755 88.5,60.5C 89.6016,59.8243 90.6016,59.1577 91.5,58.5 Z"/></g>
</svg>
