<?xml version="1.0" encoding="UTF-8"?>
<!DOCTYPE svg PUBLIC "-//W3C//DTD SVG 1.1//EN" "http://www.w3.org/Graphics/SVG/1.1/DTD/svg11.dtd">
<svg xmlns="http://www.w3.org/2000/svg" version="1.1" width="176px" height="158px" style="shape-rendering:geometricPrecision; text-rendering:geometricPrecision; image-rendering:optimizeQuality; fill-rule:evenodd; clip-rule:evenodd" xmlns:xlink="http://www.w3.org/1999/xlink">
<g><path style="opacity:1" fill="#fefefe" d="M -0.5,-0.5 C 58.1667,-0.5 116.833,-0.5 175.5,-0.5C 175.5,52.1667 175.5,104.833 175.5,157.5C 116.833,157.5 58.1667,157.5 -0.5,157.5C -0.5,104.833 -0.5,52.1667 -0.5,-0.5 Z"/></g>
<g><path style="opacity:1" fill="#f3e2cc" d="M 70.5,32.5 C 67.5,32.5 64.5,32.5 61.5,32.5C 61.5,55.5 61.5,78.5 61.5,101.5C 59.2646,101.795 57.2646,101.461 55.5,100.5C 57.1667,100.5 58.8333,100.5 60.5,100.5C 60.5,77.5 60.5,54.5 60.5,31.5C 64.0419,31.1872 67.3752,31.5206 70.5,32.5 Z"/></g>
<g><path style="opacity:1" fill="#edd1b1" d="M 70.5,32.5 C 70.3334,51.1696 70.5001,69.8363 71,88.5C 77.8152,79.671 86.3152,73.171 96.5,69C 108.65,66.8252 116.483,71.6586 120,83.5C 121.232,97.28 115.065,105.78 101.5,109C 93.4434,110.843 85.2768,111.676 77,111.5C 67.835,111.056 58.6683,110.722 49.5,110.5C 49.9107,107.447 50.5774,104.447 51.5,101.5C 52.6888,100.571 54.0222,100.238 55.5,100.5C 57.2646,101.461 59.2646,101.795 61.5,101.5C 61.5,78.5 61.5,55.5 61.5,32.5C 64.5,32.5 67.5,32.5 70.5,32.5 Z"/></g>
<g><path style="opacity:1" fill="#edd2b2" d="M 93.5,37.5 C 98.085,40.4136 102.085,44.0802 105.5,48.5C 102.167,52.5 98.5,56.1667 94.5,59.5C 90.3014,56.1356 86.6347,52.3023 83.5,48C 86.3503,43.9844 89.6836,40.4844 93.5,37.5 Z"/></g>
<g><path style="opacity:1" fill="#fefdfc" d="M 97.5,78.5 C 108.104,77.2745 112.27,81.9412 110,92.5C 106.003,97.2526 100.837,100.086 94.5,101C 87.5,101.667 80.5,101.667 73.5,101C 79.808,91.5199 87.808,84.0199 97.5,78.5 Z"/></g>
</svg>
